<?xml version="1.0" standalone="no"?>
<!DOCTYPE svg PUBLIC "-//W3C//DTD SVG 20010904//EN"
 "http://www.w3.org/TR/2001/REC-SVG-20010904/DTD/svg10.dtd">
<svg version="1.0" xmlns="http://www.w3.org/2000/svg"
 width="250.810476pt" height="117.456395pt" viewBox="0 0 250.810476 117.456395"
 preserveAspectRatio="xMidYMid meet">
<metadata>
Created by potrace 1.12, written by Peter Selinger 2001-2015
</metadata>
<g transform="translate(-122.189524,294.956395) scale(0.100000,-0.100000)"
fill="#000000" stroke="none">
<path d="M1432 2938 c-15 -20 -169 -521 -192 -627 -24 -109 -24 -216 0 -216
10 0 60 90 140 251 127 256 200 370 279 434 72 60 72 45 9 -165 -47 -156 -60
-271 -33 -281 26 -10 43 3 117 96 37 46 83 100 103 119 33 33 37 35 49 18 7
-9 16 -43 20 -74 10 -89 26 -140 52 -168 31 -34 57 -32 103 10 31 28 40 32 45
20 12 -32 49 -15 116 55 37 39 70 70 73 70 2 0 1 -19 -5 -42 -25 -113 17 -116
162 -11 23 18 24 17 16 -2 -8 -22 -31 -113 -40 -160 -7 -35 6 -60 27 -52 8 3
38 52 67 109 28 57 62 114 75 127 l24 25 25 -27 c28 -30 71 -36 102 -12 10 8
21 15 25 15 3 0 1 -27 -5 -60 -13 -79 0 -110 47 -110 40 0 92 35 156 105 24
27 41 41 38 31 -19 -50 -38 -129 -35 -148 6 -43 31 -23 82 64 52 89 120 178
136 178 5 0 12 -21 15 -47 16 -119 52 -139 130 -75 l30 25 5 -43 c7 -56 46
-90 85 -72 37 17 67 70 61 109 -4 29 -2 34 22 39 59 13 152 46 152 54 0 18
-19 19 -61 4 -24 -9 -71 -19 -104 -23 -53 -5 -60 -8 -57 -26 2 -11 6 -34 9
-51 7 -42 -11 -74 -42 -74 -53 0 -40 107 21 168 19 19 34 38 34 43 0 26 -40 1
-115 -71 -94 -90 -121 -100 -130 -45 -3 19 -7 50 -10 69 -15 93 -77 62 -178
-89 -38 -56 -34 -34 19 105 26 66 44 124 40 128 -11 11 -44 -35 -58 -79 -15
-52 -202 -249 -235 -249 -40 0 -38 44 13 218 9 31 -19 29 -36 -3 -14 -27 -81
-75 -105 -75 -8 0 -21 13 -29 29 -9 16 -22 31 -31 35 -25 9 -81 -51 -126 -134
-32 -60 -39 -68 -35 -41 3 18 22 73 41 121 19 48 35 95 35 104 0 26 -20 18
-33 -14 -19 -44 -158 -160 -193 -160 -15 0 5 91 39 167 49 115 28 124 -48 20
-19 -25 -22 -26 -52 -15 -29 11 -36 10 -60 -8 -16 -12 -51 -53 -79 -93 -72
-102 -94 -122 -124 -119 -33 4 -45 32 -64 146 -16 102 -26 122 -62 122 -30 0
-60 -27 -147 -134 -39 -49 -78 -92 -86 -94 -19 -6 -10 55 24 168 73 247 79
300 30 300 -17 0 -47 -21 -93 -65 -105 -99 -181 -219 -292 -465 -70 -154 -85
-176 -75 -110 17 113 39 197 119 447 47 148 86 274 86 281 0 16 -15 15 -28 0z
m819 -467 c-80 -95 -110 -106 -71 -27 28 58 77 101 96 85 11 -9 7 -19 -25 -58z"/>
<path d="M2850 2619 c0 -14 5 -19 17 -17 26 5 29 38 4 38 -15 0 -21 -6 -21
-21z"/>
<path d="M3707 2323 c-12 -11 -8 -23 8 -23 8 0 15 7 15 15 0 16 -12 20 -23 8z"/>
<path d="M1651 1838 c1 -35 4 -51 6 -36 3 22 10 28 36 31 l32 4 -32 1 c-28 2
-33 6 -33 26 0 21 5 25 38 29 l37 4 -42 1 -43 2 1 -62z"/>
<path d="M1824 1874 c-35 -53 21 -113 80 -86 58 26 36 112 -29 112 -26 0 -39
-6 -51 -26z m92 -9 c15 -23 15 -27 0 -50 -10 -15 -26 -25 -41 -25 -15 0 -31
10 -41 25 -15 23 -15 27 0 50 10 15 26 25 41 25 15 0 31 -10 41 -25z"/>
<path d="M2032 1893 c25 -4 27 -8 31 -61 l3 -57 2 57 c2 50 5 57 25 61 12 2
-3 4 -33 4 -30 0 -43 -2 -28 -4z"/>
<path d="M2212 1893 c-34 -14 -33 -82 2 -105 20 -14 63 -8 79 10 48 53 -12
123 -81 95z m70 -20 c24 -21 23 -45 -2 -68 -29 -27 -74 -10 -78 28 -6 52 41
76 80 40z"/>
<path d="M2404 1875 c-33 -50 11 -106 70 -91 20 5 26 12 25 34 l-1 27 -7 -25
c-10 -36 -54 -40 -77 -6 -15 24 -15 28 1 52 14 22 22 25 51 21 20 -4 32 -2 29
4 -4 5 -22 9 -40 9 -26 0 -39 -6 -51 -25z"/>
<path d="M2601 1838 c1 -35 4 -53 6 -40 6 29 43 30 61 1 7 -12 16 -18 19 -15
3 3 0 13 -8 22 -11 13 -11 18 -1 21 18 7 15 60 -4 67 -9 3 -29 6 -45 6 l-29 0
1 -62z m74 22 c0 -21 -5 -26 -32 -28 -31 -3 -33 -1 -33 28 0 29 2 31 33 28 27
-2 32 -7 32 -28z"/>
<path d="M2797 1840 c-14 -33 -22 -60 -17 -60 4 0 10 7 14 15 8 21 72 20 80
-1 4 -9 9 -15 11 -12 7 7 -43 118 -53 118 -5 0 -20 -27 -35 -60z m63 -12 c0
-5 -11 -8 -25 -8 -27 0 -31 10 -14 42 11 21 12 21 25 -3 7 -13 13 -27 14 -31z"/>
<path d="M2981 1838 c1 -35 4 -51 6 -36 3 22 10 28 36 31 l32 4 -32 1 c-28 2
-33 6 -33 26 0 21 5 25 38 29 l37 4 -42 1 -43 2 1 -62z"/>
<path d="M3153 1840 c0 -36 2 -50 4 -32 2 17 2 47 0 65 -2 17 -4 3 -4 -33z"/>
<path d="M3274 1844 c-14 -31 -23 -59 -20 -62 3 -3 8 3 12 12 8 21 72 22 80 1
4 -8 10 -15 14 -15 5 0 -4 27 -18 60 -15 33 -30 60 -35 60 -4 0 -19 -25 -33
-56z m56 -11 c0 -7 -11 -13 -25 -13 -29 0 -29 0 -13 35 11 25 13 26 25 9 7
-10 13 -24 13 -31z"/>
</g>
</svg>
